<mxfile host="Electron" agent="Mozilla/5.0 (Macintosh; Intel Mac OS X 10_15_7) AppleWebKit/537.36 (KHTML, like Gecko) draw.io/28.0.4 Chrome/138.0.7204.97 Electron/37.2.1 Safari/537.36" version="28.0.4">
  <diagram name="Page-1" id="RcWqTjuMA_zqod71p_UI">
    <mxGraphModel dx="2403" dy="795" grid="1" gridSize="10" guides="1" tooltips="1" connect="1" arrows="1" fold="1" page="1" pageScale="1" pageWidth="1169" pageHeight="827" math="0" shadow="0">
      <root>
        <mxCell id="0" />
        <mxCell id="1" parent="0" />
        <mxCell id="fWxRGrmEbetW-MnEgMER-1" value="" style="rounded=0;whiteSpace=wrap;html=1;fillColor=none;" vertex="1" parent="1">
          <mxGeometry x="-20" width="1020" height="740" as="geometry" />
        </mxCell>
        <mxCell id="gks2C-_OmMWVBGLPLD4T-36" value="&lt;span class=&quot;selected&quot;&gt;SNS Topic&lt;/span&gt;" style="rounded=0;whiteSpace=wrap;html=1;fillColor=#959595;verticalAlign=bottom;align=center;" parent="1" vertex="1">
          <mxGeometry x="315" y="480" width="645" height="110" as="geometry" />
        </mxCell>
        <mxCell id="gks2C-_OmMWVBGLPLD4T-35" value="&lt;span class=&quot;selected&quot;&gt;Bedrock Analyzer Lambda&lt;/span&gt;" style="rounded=0;whiteSpace=wrap;html=1;fillColor=#959595;verticalAlign=top;" parent="1" vertex="1">
          <mxGeometry x="570" y="330" width="390" height="140" as="geometry" />
        </mxCell>
        <mxCell id="gks2C-_OmMWVBGLPLD4T-34" value="&lt;span class=&quot;selected&quot;&gt;Remediation Orchestrator Lambda&lt;/span&gt;" style="rounded=0;whiteSpace=wrap;html=1;fillColor=#959595;verticalAlign=top;align=center;" parent="1" vertex="1">
          <mxGeometry x="20" y="330" width="480" height="140" as="geometry" />
        </mxCell>
        <mxCell id="gks2C-_OmMWVBGLPLD4T-15" style="edgeStyle=orthogonalEdgeStyle;rounded=0;orthogonalLoop=1;jettySize=auto;html=1;entryX=0.5;entryY=0;entryDx=0;entryDy=0;" parent="1" source="gks2C-_OmMWVBGLPLD4T-1" target="gks2C-_OmMWVBGLPLD4T-2" edge="1">
          <mxGeometry relative="1" as="geometry" />
        </mxCell>
        <mxCell id="gks2C-_OmMWVBGLPLD4T-1" value="Start" style="rounded=0;whiteSpace=wrap;html=1;fillColor=#008a00;fontColor=#ffffff;strokeColor=#005700;" parent="1" vertex="1">
          <mxGeometry x="200" y="40" width="80" height="40" as="geometry" />
        </mxCell>
        <mxCell id="gks2C-_OmMWVBGLPLD4T-13" style="edgeStyle=orthogonalEdgeStyle;rounded=0;orthogonalLoop=1;jettySize=auto;html=1;exitX=0;exitY=0.5;exitDx=0;exitDy=0;" parent="1" source="gks2C-_OmMWVBGLPLD4T-2" target="gks2C-_OmMWVBGLPLD4T-3" edge="1">
          <mxGeometry relative="1" as="geometry" />
        </mxCell>
        <mxCell id="gks2C-_OmMWVBGLPLD4T-14" value="(&lt;span class=&quot;selected&quot;&gt;S3_Public_Access)&lt;/span&gt;" style="edgeLabel;html=1;align=center;verticalAlign=middle;resizable=0;points=[];" parent="gks2C-_OmMWVBGLPLD4T-13" vertex="1" connectable="0">
          <mxGeometry x="0.0791" y="1" relative="1" as="geometry">
            <mxPoint as="offset" />
          </mxGeometry>
        </mxCell>
        <mxCell id="gks2C-_OmMWVBGLPLD4T-16" style="edgeStyle=orthogonalEdgeStyle;rounded=0;orthogonalLoop=1;jettySize=auto;html=1;exitX=1;exitY=0.5;exitDx=0;exitDy=0;" parent="1" source="gks2C-_OmMWVBGLPLD4T-2" target="gks2C-_OmMWVBGLPLD4T-4" edge="1">
          <mxGeometry relative="1" as="geometry" />
        </mxCell>
        <mxCell id="gks2C-_OmMWVBGLPLD4T-18" value="(&lt;span class=&quot;selected&quot;&gt;OverlyPermissive_SecurityGroup)&lt;/span&gt;" style="edgeLabel;html=1;align=center;verticalAlign=middle;resizable=0;points=[];" parent="gks2C-_OmMWVBGLPLD4T-16" vertex="1" connectable="0">
          <mxGeometry x="0.2372" relative="1" as="geometry">
            <mxPoint as="offset" />
          </mxGeometry>
        </mxCell>
        <mxCell id="gks2C-_OmMWVBGLPLD4T-20" style="edgeStyle=orthogonalEdgeStyle;rounded=0;orthogonalLoop=1;jettySize=auto;html=1;entryX=0.75;entryY=0;entryDx=0;entryDy=0;" parent="1" source="gks2C-_OmMWVBGLPLD4T-2" target="gks2C-_OmMWVBGLPLD4T-8" edge="1">
          <mxGeometry relative="1" as="geometry">
            <Array as="points">
              <mxPoint x="480" y="170" />
            </Array>
          </mxGeometry>
        </mxCell>
        <mxCell id="gks2C-_OmMWVBGLPLD4T-21" value="(Default)" style="edgeLabel;html=1;align=center;verticalAlign=middle;resizable=0;points=[];" parent="gks2C-_OmMWVBGLPLD4T-20" vertex="1" connectable="0">
          <mxGeometry x="0.1771" relative="1" as="geometry">
            <mxPoint as="offset" />
          </mxGeometry>
        </mxCell>
        <mxCell id="gks2C-_OmMWVBGLPLD4T-32" style="edgeStyle=orthogonalEdgeStyle;rounded=0;orthogonalLoop=1;jettySize=auto;html=1;entryX=0.5;entryY=0;entryDx=0;entryDy=0;" parent="1" source="gks2C-_OmMWVBGLPLD4T-2" target="gks2C-_OmMWVBGLPLD4T-5" edge="1">
          <mxGeometry relative="1" as="geometry">
            <Array as="points">
              <mxPoint x="720" y="150" />
            </Array>
          </mxGeometry>
        </mxCell>
        <mxCell id="gks2C-_OmMWVBGLPLD4T-33" value="(&lt;span class=&quot;selected&quot;&gt;High_Data_Transfer_EC2)&lt;/span&gt;" style="edgeLabel;html=1;align=center;verticalAlign=middle;resizable=0;points=[];" parent="gks2C-_OmMWVBGLPLD4T-32" vertex="1" connectable="0">
          <mxGeometry x="0.6443" relative="1" as="geometry">
            <mxPoint as="offset" />
          </mxGeometry>
        </mxCell>
        <mxCell id="gks2C-_OmMWVBGLPLD4T-2" value="&lt;span class=&quot;selected&quot;&gt;Check Anomaly Type&lt;/span&gt;" style="rhombus;whiteSpace=wrap;html=1;fillColor=#1ba1e2;fontColor=#ffffff;strokeColor=#006EAF;" parent="1" vertex="1">
          <mxGeometry x="165" y="120" width="150" height="140" as="geometry" />
        </mxCell>
        <mxCell id="gks2C-_OmMWVBGLPLD4T-17" style="edgeStyle=orthogonalEdgeStyle;rounded=0;orthogonalLoop=1;jettySize=auto;html=1;entryX=0;entryY=0.5;entryDx=0;entryDy=0;" parent="1" source="gks2C-_OmMWVBGLPLD4T-3" target="gks2C-_OmMWVBGLPLD4T-12" edge="1">
          <mxGeometry relative="1" as="geometry">
            <Array as="points">
              <mxPoint x="120" y="670" />
            </Array>
          </mxGeometry>
        </mxCell>
        <mxCell id="gks2C-_OmMWVBGLPLD4T-26" style="edgeStyle=orthogonalEdgeStyle;rounded=0;orthogonalLoop=1;jettySize=auto;html=1;entryX=0.25;entryY=0;entryDx=0;entryDy=0;" parent="1" source="gks2C-_OmMWVBGLPLD4T-3" target="gks2C-_OmMWVBGLPLD4T-9" edge="1">
          <mxGeometry relative="1" as="geometry">
            <Array as="points">
              <mxPoint x="160" y="450" />
              <mxPoint x="600" y="450" />
            </Array>
          </mxGeometry>
        </mxCell>
        <mxCell id="gks2C-_OmMWVBGLPLD4T-27" value="(&lt;span class=&quot;selected&quot;&gt;Remediation Failed)&lt;/span&gt;" style="edgeLabel;html=1;align=center;verticalAlign=middle;resizable=0;points=[];" parent="gks2C-_OmMWVBGLPLD4T-26" vertex="1" connectable="0">
          <mxGeometry x="-0.5038" y="-2" relative="1" as="geometry">
            <mxPoint x="-19" as="offset" />
          </mxGeometry>
        </mxCell>
        <mxCell id="gks2C-_OmMWVBGLPLD4T-3" value="&lt;span class=&quot;selected&quot;&gt;Remediate&amp;nbsp;&lt;/span&gt;&lt;div&gt;&lt;span class=&quot;selected&quot;&gt;S3 Public Access&lt;/span&gt;&lt;/div&gt;" style="rounded=0;whiteSpace=wrap;html=1;fillColor=#f0a30a;fontColor=#000000;strokeColor=#BD7000;" parent="1" vertex="1">
          <mxGeometry x="40" y="360" width="160" height="60" as="geometry" />
        </mxCell>
        <mxCell id="gks2C-_OmMWVBGLPLD4T-19" style="edgeStyle=orthogonalEdgeStyle;rounded=0;orthogonalLoop=1;jettySize=auto;html=1;entryX=0.25;entryY=0;entryDx=0;entryDy=0;" parent="1" source="gks2C-_OmMWVBGLPLD4T-4" target="gks2C-_OmMWVBGLPLD4T-12" edge="1">
          <mxGeometry relative="1" as="geometry">
            <Array as="points">
              <mxPoint x="305" y="470" />
              <mxPoint x="305" y="470" />
            </Array>
          </mxGeometry>
        </mxCell>
        <mxCell id="gks2C-_OmMWVBGLPLD4T-28" style="edgeStyle=orthogonalEdgeStyle;rounded=0;orthogonalLoop=1;jettySize=auto;html=1;entryX=0.5;entryY=0;entryDx=0;entryDy=0;" parent="1" source="gks2C-_OmMWVBGLPLD4T-4" target="gks2C-_OmMWVBGLPLD4T-9" edge="1">
          <mxGeometry relative="1" as="geometry">
            <Array as="points">
              <mxPoint x="360" y="430" />
              <mxPoint x="640" y="430" />
            </Array>
          </mxGeometry>
        </mxCell>
        <mxCell id="gks2C-_OmMWVBGLPLD4T-29" value="(&lt;span class=&quot;selected&quot;&gt;Remediation Failed)&lt;/span&gt;" style="edgeLabel;html=1;align=center;verticalAlign=middle;resizable=0;points=[];" parent="gks2C-_OmMWVBGLPLD4T-28" vertex="1" connectable="0">
          <mxGeometry x="0.3889" y="-1" relative="1" as="geometry">
            <mxPoint x="-170" y="-1" as="offset" />
          </mxGeometry>
        </mxCell>
        <mxCell id="gks2C-_OmMWVBGLPLD4T-4" value="&lt;span class=&quot;selected&quot;&gt;Remediate Security Group&lt;/span&gt;" style="rounded=0;whiteSpace=wrap;html=1;fillColor=#f0a30a;fontColor=#000000;strokeColor=#BD7000;" parent="1" vertex="1">
          <mxGeometry x="280" y="360" width="160" height="60" as="geometry" />
        </mxCell>
        <mxCell id="gks2C-_OmMWVBGLPLD4T-23" style="edgeStyle=orthogonalEdgeStyle;rounded=0;orthogonalLoop=1;jettySize=auto;html=1;entryX=1;entryY=0.5;entryDx=0;entryDy=0;" parent="1" source="gks2C-_OmMWVBGLPLD4T-5" target="gks2C-_OmMWVBGLPLD4T-12" edge="1">
          <mxGeometry relative="1" as="geometry" />
        </mxCell>
        <mxCell id="gks2C-_OmMWVBGLPLD4T-30" style="edgeStyle=orthogonalEdgeStyle;rounded=0;orthogonalLoop=1;jettySize=auto;html=1;entryX=0.5;entryY=0;entryDx=0;entryDy=0;" parent="1" source="gks2C-_OmMWVBGLPLD4T-5" target="gks2C-_OmMWVBGLPLD4T-6" edge="1">
          <mxGeometry relative="1" as="geometry">
            <Array as="points">
              <mxPoint x="840" y="390" />
            </Array>
          </mxGeometry>
        </mxCell>
        <mxCell id="gks2C-_OmMWVBGLPLD4T-31" value="(&lt;span class=&quot;selected&quot;&gt;Analysis Failed)&lt;/span&gt;" style="edgeLabel;html=1;align=center;verticalAlign=middle;resizable=0;points=[];" parent="gks2C-_OmMWVBGLPLD4T-30" vertex="1" connectable="0">
          <mxGeometry x="0.2267" y="-1" relative="1" as="geometry">
            <mxPoint as="offset" />
          </mxGeometry>
        </mxCell>
        <mxCell id="gks2C-_OmMWVBGLPLD4T-5" value="&lt;span class=&quot;selected&quot;&gt;Analyze EC2 Egress Anomaly&lt;/span&gt;" style="rounded=0;whiteSpace=wrap;html=1;fillColor=#f0a30a;fontColor=#000000;strokeColor=#BD7000;" parent="1" vertex="1">
          <mxGeometry x="640" y="360" width="160" height="60" as="geometry" />
        </mxCell>
        <mxCell id="gks2C-_OmMWVBGLPLD4T-25" style="edgeStyle=orthogonalEdgeStyle;rounded=0;orthogonalLoop=1;jettySize=auto;html=1;entryX=0.75;entryY=0;entryDx=0;entryDy=0;" parent="1" source="gks2C-_OmMWVBGLPLD4T-6" target="gks2C-_OmMWVBGLPLD4T-11" edge="1">
          <mxGeometry relative="1" as="geometry" />
        </mxCell>
        <mxCell id="gks2C-_OmMWVBGLPLD4T-6" value="&lt;span class=&quot;selected&quot;&gt;Notify Analysis Failure&lt;/span&gt;" style="rounded=0;whiteSpace=wrap;html=1;fillColor=#f0a30a;fontColor=#000000;strokeColor=#BD7000;" parent="1" vertex="1">
          <mxGeometry x="760" y="500" width="160" height="60" as="geometry" />
        </mxCell>
        <mxCell id="gks2C-_OmMWVBGLPLD4T-22" style="edgeStyle=orthogonalEdgeStyle;rounded=0;orthogonalLoop=1;jettySize=auto;html=1;entryX=0.5;entryY=0;entryDx=0;entryDy=0;" parent="1" source="gks2C-_OmMWVBGLPLD4T-8" target="gks2C-_OmMWVBGLPLD4T-12" edge="1">
          <mxGeometry relative="1" as="geometry" />
        </mxCell>
        <mxCell id="gks2C-_OmMWVBGLPLD4T-8" value="&lt;span class=&quot;selected&quot;&gt;Notify Manual Review&lt;/span&gt;" style="rounded=0;whiteSpace=wrap;html=1;fillColor=#f0a30a;fontColor=#000000;strokeColor=#BD7000;" parent="1" vertex="1">
          <mxGeometry x="360" y="500" width="160" height="60" as="geometry" />
        </mxCell>
        <mxCell id="gks2C-_OmMWVBGLPLD4T-24" style="edgeStyle=orthogonalEdgeStyle;rounded=0;orthogonalLoop=1;jettySize=auto;html=1;entryX=0.25;entryY=0;entryDx=0;entryDy=0;" parent="1" source="gks2C-_OmMWVBGLPLD4T-9" target="gks2C-_OmMWVBGLPLD4T-11" edge="1">
          <mxGeometry relative="1" as="geometry" />
        </mxCell>
        <mxCell id="gks2C-_OmMWVBGLPLD4T-9" value="&lt;span class=&quot;selected&quot;&gt;Notify Remediation Failure&lt;/span&gt;" style="rounded=0;whiteSpace=wrap;html=1;fillColor=#f0a30a;fontColor=#000000;strokeColor=#BD7000;" parent="1" vertex="1">
          <mxGeometry x="560" y="500" width="160" height="60" as="geometry" />
        </mxCell>
        <mxCell id="gks2C-_OmMWVBGLPLD4T-11" value="&lt;span class=&quot;selected&quot;&gt;End - Remediation Failed&lt;/span&gt;" style="rounded=1;whiteSpace=wrap;html=1;fillColor=#a20025;fontColor=#ffffff;strokeColor=#6F0000;" parent="1" vertex="1">
          <mxGeometry x="650" y="640" width="180" height="60" as="geometry" />
        </mxCell>
        <mxCell id="gks2C-_OmMWVBGLPLD4T-12" value="&lt;span class=&quot;selected&quot;&gt;End - Remediation Success&lt;/span&gt;" style="rounded=1;whiteSpace=wrap;html=1;fillColor=#a20025;fontColor=#ffffff;strokeColor=#6F0000;" parent="1" vertex="1">
          <mxGeometry x="260" y="640" width="180" height="60" as="geometry" />
        </mxCell>
      </root>
    </mxGraphModel>
  </diagram>
</mxfile>
